<svg width="24" height="24" viewBox="0 0 24 24" fill="none" xmlns="http://www.w3.org/2000/svg">
<path d="M17.5703 18.2812C17.3776 18.2812 17.2161 18.2161 17.0859 18.0859C16.9557 17.9609 16.8906 17.8021 16.8906 17.6094C16.8906 17.5156 16.9062 17.4271 16.9375 17.3438C16.9688 17.2552 17.0156 17.1797 17.0781 17.1172L18.8281 15.3359L22.0859 12.3594L18.8281 9.38281L17.0781 7.60156C17.0156 7.53906 16.9688 7.46615 16.9375 7.38281C16.9062 7.29427 16.8906 7.20312 16.8906 7.10938C16.8906 6.91667 16.9557 6.75781 17.0859 6.63281C17.2161 6.5026 17.3776 6.4375 17.5703 6.4375C17.6641 6.4375 17.7526 6.45573 17.8359 6.49219C17.9245 6.52865 18.0104 6.58854 18.0938 6.67188L23.2734 11.8359C23.4297 11.987 23.5078 12.1615 23.5078 12.3594C23.5078 12.5573 23.4297 12.7318 23.2734 12.8828L18.0781 18.0625C17.9271 18.2083 17.7578 18.2812 17.5703 18.2812ZM9.6875 13.0547C9.48438 13.0547 9.31771 12.9896 9.1875 12.8594C9.0625 12.7292 9 12.5625 9 12.3594C9 12.1562 9.0625 11.9896 9.1875 11.8594C9.31771 11.7292 9.48438 11.6641 9.6875 11.6641H19.5703L22.0859 11.8203C22.2474 11.8307 22.3776 11.8828 22.4766 11.9766C22.5755 12.0703 22.625 12.1979 22.625 12.3594C22.625 12.5156 22.5755 12.6406 22.4766 12.7344C22.3776 12.8281 22.2474 12.8828 22.0859 12.8984L19.5703 13.0547H9.6875Z" fill="#101010"/>
<path d="M6.4375 18.2812C6.63021 18.2812 6.79167 18.2161 6.92188 18.0859C7.05208 17.9609 7.11719 17.8021 7.11719 17.6094C7.11719 17.5156 7.10156 17.4271 7.07031 17.3438C7.03906 17.2552 6.99219 17.1797 6.92969 17.1172L5.17969 15.3359L1.92188 12.3594L5.17969 9.38281L6.92969 7.60156C6.99219 7.53906 7.03906 7.46615 7.07031 7.38281C7.10156 7.29427 7.11719 7.20312 7.11719 7.10938C7.11719 6.91667 7.05208 6.75781 6.92188 6.63281C6.79167 6.5026 6.63021 6.4375 6.4375 6.4375C6.34375 6.4375 6.25521 6.45573 6.17188 6.49219C6.08333 6.52865 5.9974 6.58854 5.91406 6.67188L0.734375 11.8359C0.578125 11.987 0.5 12.1615 0.5 12.3594C0.5 12.5573 0.578125 12.7318 0.734375 12.8828L5.92969 18.0625C6.08073 18.2083 6.25 18.2812 6.4375 18.2812ZM14.3203 13.0547C14.5234 13.0547 14.6901 12.9896 14.8203 12.8594C14.9453 12.7292 15.0078 12.5625 15.0078 12.3594C15.0078 12.1562 14.9453 11.9896 14.8203 11.8594C14.6901 11.7292 14.5234 11.6641 14.3203 11.6641H4.4375L1.92188 11.8203C1.76042 11.8307 1.63021 11.8828 1.53125 11.9766C1.43229 12.0703 1.38281 12.1979 1.38281 12.3594C1.38281 12.5156 1.43229 12.6406 1.53125 12.7344C1.63021 12.8281 1.76042 12.8828 1.92188 12.8984L4.4375 13.0547H14.3203Z" fill="#101010"/>
</svg>
