<svg width="24" height="24" viewBox="0 0 24 24" fill="none" xmlns="http://www.w3.org/2000/svg">
<path d="M19.6875 12.3594C19.6875 12.4531 19.6667 12.5443 19.625 12.6328C19.5885 12.7214 19.5312 12.8047 19.4531 12.8828L15.2812 16.9688C15.1406 17.1146 14.9714 17.1875 14.7734 17.1875C14.5651 17.1875 14.3984 17.1224 14.2734 16.9922C14.1484 16.862 14.0859 16.6953 14.0859 16.4922C14.0859 16.3932 14.1016 16.3047 14.1328 16.2266C14.1641 16.1484 14.2109 16.0781 14.2734 16.0156L16.1094 14.2422L18.3125 12.3594L16.1094 10.4766L14.2734 8.69531C14.2109 8.63802 14.1641 8.57031 14.1328 8.49219C14.1016 8.41406 14.0859 8.32292 14.0859 8.21875C14.0859 8.02083 14.1484 7.85677 14.2734 7.72656C14.3984 7.59635 14.5651 7.53125 14.7734 7.53125C14.9714 7.53125 15.1406 7.60417 15.2812 7.75L19.4531 11.8359C19.5312 11.9089 19.5885 11.9896 19.625 12.0781C19.6667 12.1667 19.6875 12.2604 19.6875 12.3594ZM4.89062 12.3594C4.89062 12.1875 4.95052 12.0443 5.07031 11.9297C5.1901 11.8099 5.33333 11.7474 5.5 11.7422L8.23438 11.6641H15.7578L18.4922 11.7422C18.6589 11.7474 18.8021 11.8099 18.9219 11.9297C19.0417 12.0443 19.1016 12.1875 19.1016 12.3594C19.1016 12.526 19.0417 12.6693 18.9219 12.7891C18.8021 12.9089 18.6589 12.9714 18.4922 12.9766L15.7578 13.0547H8.23438L5.5 12.9766C5.33333 12.9714 5.1901 12.9089 5.07031 12.7891C4.95052 12.6693 4.89062 12.526 4.89062 12.3594ZM4.30469 12.3594C4.30469 12.2604 4.32292 12.1667 4.35938 12.0781C4.40104 11.9896 4.46094 11.9089 4.53906 11.8359L8.71094 7.75C8.85156 7.60417 9.02083 7.53125 9.21875 7.53125C9.42708 7.53125 9.59375 7.59635 9.71875 7.72656C9.84375 7.85677 9.90625 8.02083 9.90625 8.21875C9.90625 8.32292 9.89062 8.41406 9.85938 8.49219C9.82812 8.57031 9.78125 8.63802 9.71875 8.69531L7.88281 10.4766L5.67969 12.3594L7.88281 14.2422L9.71875 16.0156C9.78125 16.0781 9.82812 16.1484 9.85938 16.2266C9.89062 16.3047 9.90625 16.3932 9.90625 16.4922C9.90625 16.6953 9.84375 16.862 9.71875 16.9922C9.59375 17.1224 9.42708 17.1875 9.21875 17.1875C9.02083 17.1875 8.85156 17.1146 8.71094 16.9688L4.53906 12.8828C4.46094 12.8047 4.40104 12.7214 4.35938 12.6328C4.32292 12.5443 4.30469 12.4531 4.30469 12.3594Z" fill="#101010"/>
</svg>
