<svg width="24" height="24" viewBox="0 0 24 24" fill="none" xmlns="http://www.w3.org/2000/svg">
<path d="M11.1797 18.2812C10.9922 18.2812 10.8229 18.2083 10.6719 18.0625L5.48438 12.8828C5.32292 12.7318 5.24219 12.5573 5.24219 12.3594C5.24219 12.1615 5.32292 11.987 5.48438 11.8359L10.6562 6.67188C10.7396 6.58854 10.8229 6.52865 10.9062 6.49219C10.9948 6.45573 11.0859 6.4375 11.1797 6.4375C11.3724 6.4375 11.5339 6.5026 11.6641 6.63281C11.7995 6.75781 11.8672 6.91667 11.8672 7.10938C11.8672 7.20312 11.849 7.29427 11.8125 7.38281C11.7812 7.46615 11.7344 7.53906 11.6719 7.60156L9.92188 9.38281L6.66406 12.3594L9.92188 15.3359L11.6719 17.1172C11.7344 17.1797 11.7812 17.2552 11.8125 17.3438C11.849 17.4271 11.8672 17.5156 11.8672 17.6094C11.8672 17.8021 11.7995 17.9609 11.6641 18.0859C11.5339 18.2161 11.3724 18.2812 11.1797 18.2812ZM9.17969 13.0547L6.66406 12.8984C6.50781 12.8984 6.3776 12.849 6.27344 12.75C6.17448 12.6458 6.125 12.5156 6.125 12.3594C6.125 12.1979 6.17448 12.0677 6.27344 11.9688C6.3776 11.8698 6.50781 11.8203 6.66406 11.8203L9.17969 11.6641H19.0625C19.2656 11.6641 19.4297 11.7292 19.5547 11.8594C19.6849 11.9896 19.75 12.1562 19.75 12.3594C19.75 12.5625 19.6849 12.7292 19.5547 12.8594C19.4297 12.9896 19.2656 13.0547 19.0625 13.0547H9.17969Z" fill="#101010"/>
</svg>
