<svg width="24" height="24" viewBox="0 0 24 24" fill="none" xmlns="http://www.w3.org/2000/svg">
<path d="M13.8125 18.2812C13.6198 18.2812 13.4583 18.2161 13.3281 18.0859C13.1979 17.9609 13.1328 17.8021 13.1328 17.6094C13.1328 17.5156 13.1484 17.4271 13.1797 17.3438C13.2109 17.2552 13.2578 17.1797 13.3203 17.1172L15.0703 15.3359L18.3281 12.3594L15.0703 9.38281L13.3203 7.60156C13.2578 7.53906 13.2109 7.46615 13.1797 7.38281C13.1484 7.29427 13.1328 7.20312 13.1328 7.10938C13.1328 6.91667 13.1979 6.75781 13.3281 6.63281C13.4583 6.5026 13.6198 6.4375 13.8125 6.4375C13.9062 6.4375 13.9948 6.45573 14.0781 6.49219C14.1667 6.52865 14.2526 6.58854 14.3359 6.67188L19.5156 11.8359C19.6719 11.987 19.75 12.1615 19.75 12.3594C19.75 12.5573 19.6719 12.7318 19.5156 12.8828L14.3203 18.0625C14.1693 18.2083 14 18.2812 13.8125 18.2812ZM5.92969 13.0547C5.72656 13.0547 5.5599 12.9896 5.42969 12.8594C5.30469 12.7292 5.24219 12.5625 5.24219 12.3594C5.24219 12.1562 5.30469 11.9896 5.42969 11.8594C5.5599 11.7292 5.72656 11.6641 5.92969 11.6641H15.8125L18.3281 11.8203C18.4896 11.8307 18.6198 11.8828 18.7188 11.9766C18.8177 12.0703 18.8672 12.1979 18.8672 12.3594C18.8672 12.5156 18.8177 12.6406 18.7188 12.7344C18.6198 12.8281 18.4896 12.8828 18.3281 12.8984L15.8125 13.0547H5.92969Z" fill="#101010"/>
</svg>
